<svg width="189" height="31" viewBox="0 0 189 31" fill="none" xmlns="http://www.w3.org/2000/svg">
<path d="M0.381875 30L11.4619 2H17.2219L28.2219 30H21.3419L16.0619 15.8C15.8485 15.24 15.6352 14.64 15.4219 14C15.2085 13.36 14.9952 12.7067 14.7819 12.04C14.5685 11.3467 14.3552 10.68 14.1419 10.04C13.9552 9.37333 13.7952 8.76 13.6619 8.2L14.8619 8.16C14.7019 8.82667 14.5152 9.48 14.3019 10.12C14.1152 10.76 13.9152 11.4 13.7019 12.04C13.5152 12.6533 13.3019 13.28 13.0619 13.92C12.8219 14.5333 12.5952 15.1733 12.3819 15.84L7.10188 30H0.381875ZM5.66188 24.64L7.78188 19.52H20.6619L22.7419 24.64H5.66188ZM43.7953 30.44C42.8353 30.44 41.9153 30.3067 41.0353 30.04C40.1553 29.7733 39.3553 29.4133 38.6353 28.96C37.942 28.5067 37.3553 27.9867 36.8753 27.4C36.422 26.7867 36.1153 26.16 35.9553 25.52L37.3553 25.04L36.9953 29.96H31.0353V0.4H37.4753V13.84L36.1553 13.36C36.3153 12.6667 36.622 12.0267 37.0753 11.44C37.5286 10.8267 38.102 10.2933 38.7953 9.84C39.4886 9.36 40.2486 8.98667 41.0753 8.72C41.902 8.45333 42.7553 8.32 43.6353 8.32C45.4753 8.32 47.102 8.8 48.5153 9.76C49.9553 10.6933 51.0886 12 51.9153 13.68C52.742 15.3333 53.1553 17.2267 53.1553 19.36C53.1553 21.52 52.742 23.44 51.9153 25.12C51.1153 26.7733 50.0086 28.08 48.5953 29.04C47.182 29.9733 45.582 30.44 43.7953 30.44ZM42.1153 25.04C43.0753 25.04 43.9153 24.8 44.6353 24.32C45.3553 23.84 45.902 23.1867 46.2753 22.36C46.6753 21.5067 46.8753 20.5067 46.8753 19.36C46.8753 18.24 46.6753 17.2533 46.2753 16.4C45.902 15.5467 45.3553 14.8933 44.6353 14.44C43.9153 13.9867 43.0753 13.76 42.1153 13.76C41.1286 13.76 40.2753 13.9867 39.5553 14.44C38.8353 14.8933 38.2753 15.5467 37.8753 16.4C37.4753 17.2533 37.2753 18.24 37.2753 19.36C37.2753 20.5067 37.4753 21.5067 37.8753 22.36C38.2753 23.1867 38.8353 23.84 39.5553 24.32C40.2753 24.8 41.1286 25.04 42.1153 25.04ZM67.3634 30.4C65.1501 30.4 63.1768 29.92 61.4434 28.96C59.7368 28 58.3768 26.6933 57.3634 25.04C56.3768 23.3867 55.8834 21.4933 55.8834 19.36C55.8834 17.2267 56.3768 15.3333 57.3634 13.68C58.3768 12.0267 59.7368 10.72 61.4434 9.76C63.1768 8.8 65.1501 8.32 67.3634 8.32C69.5768 8.32 71.5368 8.8 73.2434 9.76C74.9768 10.72 76.3368 12.0267 77.3234 13.68C78.3101 15.3333 78.8034 17.2267 78.8034 19.36C78.8034 21.4933 78.3101 23.3867 77.3234 25.04C76.3368 26.6933 74.9768 28 73.2434 28.96C71.5368 29.92 69.5768 30.4 67.3634 30.4ZM67.3634 24.88C68.3234 24.88 69.1768 24.64 69.9234 24.16C70.6701 23.68 71.2568 23.0267 71.6834 22.2C72.1101 21.3733 72.3101 20.4267 72.2834 19.36C72.3101 18.2933 72.1101 17.3467 71.6834 16.52C71.2568 15.6667 70.6701 15 69.9234 14.52C69.1768 14.04 68.3234 13.8 67.3634 13.8C66.4034 13.8 65.5368 14.04 64.7634 14.52C64.0168 15 63.4301 15.6667 63.0034 16.52C62.5768 17.3467 62.3768 18.2933 62.4034 19.36C62.3768 20.4267 62.5768 21.3733 63.0034 22.2C63.4301 23.0267 64.0168 23.68 64.7634 24.16C65.5368 24.64 66.4034 24.88 67.3634 24.88ZM90.2284 30.44C88.6551 30.44 87.3084 30.1067 86.1884 29.44C85.0951 28.7467 84.2418 27.76 83.6284 26.48C83.0418 25.2 82.7484 23.6667 82.7484 21.88V8.76H89.1884V21C89.1884 21.8533 89.3218 22.5867 89.5884 23.2C89.8551 23.8133 90.2551 24.2933 90.7884 24.64C91.3218 24.96 91.9618 25.12 92.7084 25.12C93.2684 25.12 93.7751 25.0267 94.2284 24.84C94.7084 24.6533 95.1084 24.4 95.4284 24.08C95.7751 23.7333 96.0418 23.3467 96.2284 22.92C96.4151 22.4667 96.5084 21.9733 96.5084 21.44V8.76H102.948V30H96.9084L96.6284 25.64L97.8284 25.16C97.5084 26.1733 96.9751 27.08 96.2284 27.88C95.4818 28.6533 94.5884 29.28 93.5484 29.76C92.5084 30.2133 91.4018 30.44 90.2284 30.44ZM110.413 30V3.4H116.813V30H110.413ZM106.653 14.36V8.76H120.933V14.36H106.653ZM125.27 30V2H131.35L141.55 18.6L137.19 18.56L147.51 2H153.35V30H146.75V21.28C146.75 18.88 146.803 16.72 146.91 14.8C147.043 12.88 147.257 10.9733 147.55 9.08L148.31 11.16L140.55 23.2H137.91L130.31 11.24L131.07 9.08C131.363 10.8667 131.563 12.7067 131.67 14.6C131.803 16.4667 131.87 18.6933 131.87 21.28V30H125.27ZM169.827 30.4C167.481 30.4 165.441 29.9333 163.707 29C161.974 28.04 160.627 26.7467 159.667 25.12C158.707 23.4667 158.227 21.5867 158.227 19.48C158.227 17.8533 158.494 16.36 159.027 15C159.561 13.64 160.307 12.4667 161.267 11.48C162.227 10.4667 163.361 9.69333 164.667 9.16C166.001 8.6 167.454 8.32 169.027 8.32C170.521 8.32 171.881 8.58666 173.107 9.12C174.361 9.65333 175.441 10.4 176.347 11.36C177.254 12.32 177.947 13.4533 178.427 14.76C178.907 16.0667 179.121 17.4933 179.067 19.04L179.027 20.76H162.107L161.187 17.16H173.827L173.147 17.92V17.12C173.094 16.4533 172.881 15.8667 172.507 15.36C172.161 14.8267 171.694 14.4133 171.107 14.12C170.521 13.8267 169.854 13.68 169.107 13.68C168.067 13.68 167.174 13.8933 166.427 14.32C165.707 14.72 165.161 15.32 164.787 16.12C164.414 16.8933 164.227 17.8533 164.227 19C164.227 20.1733 164.467 21.2 164.947 22.08C165.454 22.9333 166.174 23.6 167.107 24.08C168.067 24.56 169.201 24.8 170.507 24.8C171.414 24.8 172.214 24.6667 172.907 24.4C173.627 24.1333 174.401 23.68 175.227 23.04L178.227 27.28C177.401 28 176.521 28.5867 175.587 29.04C174.654 29.4933 173.694 29.8267 172.707 30.04C171.747 30.28 170.787 30.4 169.827 30.4ZM185.425 30.44C184.331 30.44 183.478 30.1333 182.865 29.52C182.278 28.9067 181.985 28.0267 181.985 26.88C181.985 25.8133 182.305 24.9467 182.945 24.28C183.585 23.6133 184.411 23.28 185.425 23.28C186.518 23.28 187.371 23.6 187.985 24.24C188.598 24.8533 188.905 25.7333 188.905 26.88C188.905 27.92 188.585 28.7733 187.945 29.44C187.305 30.1067 186.465 30.44 185.425 30.44Z" fill="white"/>
</svg>
