<svg width="115" height="19" viewBox="0 0 115 19" fill="none" xmlns="http://www.w3.org/2000/svg">
<path d="M0.976 18L7.624 1.2H11.08L17.68 18H13.552L10.384 9.48C10.256 9.144 10.128 8.784 10 8.4C9.872 8.016 9.744 7.624 9.616 7.224C9.488 6.808 9.36 6.408 9.232 6.024C9.12 5.624 9.024 5.256 8.944 4.92L9.664 4.896C9.568 5.296 9.456 5.688 9.328 6.072C9.216 6.456 9.096 6.84 8.968 7.224C8.856 7.592 8.728 7.968 8.584 8.352C8.44 8.72 8.304 9.104 8.176 9.504L5.008 18H0.976ZM4.144 14.784L5.416 11.712H13.144L14.392 14.784H4.144ZM27.0241 18.264C26.4481 18.264 25.8961 18.184 25.3681 18.024C24.8401 17.864 24.3601 17.648 23.9281 17.376C23.5121 17.104 23.1601 16.792 22.8721 16.44C22.6001 16.072 22.4161 15.696 22.3201 15.312L23.1601 15.024L22.9441 17.976H19.3681V0.24H23.2321V8.304L22.4401 8.016C22.5361 7.6 22.7201 7.216 22.9921 6.864C23.2641 6.496 23.6081 6.176 24.0241 5.904C24.4401 5.616 24.8961 5.392 25.3921 5.232C25.8881 5.072 26.4001 4.992 26.9281 4.992C28.0321 4.992 29.0081 5.28 29.8561 5.856C30.7201 6.416 31.4001 7.2 31.8961 8.208C32.3921 9.2 32.6401 10.336 32.6401 11.616C32.6401 12.912 32.3921 14.064 31.8961 15.072C31.4161 16.064 30.7521 16.848 29.9041 17.424C29.0561 17.984 28.0961 18.264 27.0241 18.264ZM26.0161 15.024C26.5921 15.024 27.0961 14.88 27.5281 14.592C27.9601 14.304 28.2881 13.912 28.5121 13.416C28.7521 12.904 28.8721 12.304 28.8721 11.616C28.8721 10.944 28.7521 10.352 28.5121 9.84C28.2881 9.328 27.9601 8.936 27.5281 8.664C27.0961 8.392 26.5921 8.256 26.0161 8.256C25.4241 8.256 24.9121 8.392 24.4801 8.664C24.0481 8.936 23.7121 9.328 23.4721 9.84C23.2321 10.352 23.1121 10.944 23.1121 11.616C23.1121 12.304 23.2321 12.904 23.4721 13.416C23.7121 13.912 24.0481 14.304 24.4801 14.592C24.9121 14.88 25.4241 15.024 26.0161 15.024ZM41.1649 18.24C39.8369 18.24 38.6529 17.952 37.6129 17.376C36.5889 16.8 35.7729 16.016 35.1649 15.024C34.5729 14.032 34.2769 12.896 34.2769 11.616C34.2769 10.336 34.5729 9.2 35.1649 8.208C35.7729 7.216 36.5889 6.432 37.6129 5.856C38.6529 5.28 39.8369 4.992 41.1649 4.992C42.4929 4.992 43.6689 5.28 44.6929 5.856C45.7329 6.432 46.5489 7.216 47.1409 8.208C47.7329 9.2 48.0289 10.336 48.0289 11.616C48.0289 12.896 47.7329 14.032 47.1409 15.024C46.5489 16.016 45.7329 16.8 44.6929 17.376C43.6689 17.952 42.4929 18.24 41.1649 18.24ZM41.1649 14.928C41.7409 14.928 42.2529 14.784 42.7009 14.496C43.1489 14.208 43.5009 13.816 43.7569 13.32C44.0129 12.824 44.1329 12.256 44.1169 11.616C44.1329 10.976 44.0129 10.408 43.7569 9.912C43.5009 9.4 43.1489 9 42.7009 8.712C42.2529 8.424 41.7409 8.28 41.1649 8.28C40.5889 8.28 40.0689 8.424 39.6049 8.712C39.1569 9 38.8049 9.4 38.5489 9.912C38.2929 10.408 38.1729 10.976 38.1889 11.616C38.1729 12.256 38.2929 12.824 38.5489 13.32C38.8049 13.816 39.1569 14.208 39.6049 14.496C40.0689 14.784 40.5889 14.928 41.1649 14.928ZM54.8839 18.264C53.9399 18.264 53.1319 18.064 52.4599 17.664C51.8039 17.248 51.2919 16.656 50.9239 15.888C50.5719 15.12 50.3959 14.2 50.3959 13.128V5.256H54.2599V12.6C54.2599 13.112 54.3399 13.552 54.4999 13.92C54.6599 14.288 54.8999 14.576 55.2199 14.784C55.5399 14.976 55.9239 15.072 56.3719 15.072C56.7079 15.072 57.0119 15.016 57.2839 14.904C57.5719 14.792 57.8119 14.64 58.0039 14.448C58.2119 14.24 58.3719 14.008 58.4839 13.752C58.5959 13.48 58.6519 13.184 58.6519 12.864V5.256H62.5159V18H58.8919L58.7239 15.384L59.4439 15.096C59.2519 15.704 58.9319 16.248 58.4839 16.728C58.0359 17.192 57.4999 17.568 56.8759 17.856C56.2519 18.128 55.5879 18.264 54.8839 18.264ZM66.9944 18V2.04H70.8344V18H66.9944ZM64.7384 8.616V5.256H73.3064V8.616H64.7384Z" fill="white"/>
<path d="M75.9089 18V1.2H79.5569L85.6769 11.16L83.0609 11.136L89.2529 1.2H92.7569V18H88.7969V12.768C88.7969 11.328 88.8289 10.032 88.8929 8.88C88.9729 7.728 89.1009 6.584 89.2769 5.448L89.7329 6.696L85.0769 13.92H83.4929L78.9329 6.744L79.3889 5.448C79.5649 6.52 79.6849 7.624 79.7489 8.76C79.8289 9.88 79.8689 11.216 79.8689 12.768V18H75.9089ZM102.643 18.24C101.235 18.24 100.011 17.96 98.9712 17.4C97.9312 16.824 97.1232 16.048 96.5472 15.072C95.9712 14.08 95.6832 12.952 95.6832 11.688C95.6832 10.712 95.8432 9.816 96.1632 9C96.4832 8.184 96.9312 7.48 97.5072 6.888C98.0832 6.28 98.7632 5.816 99.5472 5.496C100.347 5.16 101.219 4.992 102.163 4.992C103.059 4.992 103.875 5.152 104.611 5.472C105.363 5.792 106.011 6.24 106.555 6.816C107.099 7.392 107.515 8.072 107.803 8.856C108.091 9.64 108.219 10.496 108.187 11.424L108.163 12.456H98.0112L97.4592 10.296H105.043L104.635 10.752V10.272C104.603 9.872 104.475 9.52 104.251 9.216C104.043 8.896 103.763 8.648 103.411 8.472C103.059 8.296 102.659 8.208 102.211 8.208C101.587 8.208 101.051 8.336 100.603 8.592C100.171 8.832 99.8432 9.192 99.6192 9.672C99.3952 10.136 99.2832 10.712 99.2832 11.4C99.2832 12.104 99.4272 12.72 99.7152 13.248C100.019 13.76 100.451 14.16 101.011 14.448C101.587 14.736 102.267 14.88 103.051 14.88C103.595 14.88 104.075 14.8 104.491 14.64C104.923 14.48 105.387 14.208 105.883 13.824L107.683 16.368C107.187 16.8 106.659 17.152 106.099 17.424C105.539 17.696 104.963 17.896 104.371 18.024C103.795 18.168 103.219 18.24 102.643 18.24ZM112.002 18.264C111.346 18.264 110.834 18.08 110.466 17.712C110.114 17.344 109.938 16.816 109.938 16.128C109.938 15.488 110.13 14.968 110.514 14.568C110.898 14.168 111.394 13.968 112.002 13.968C112.658 13.968 113.17 14.16 113.538 14.544C113.906 14.912 114.09 15.44 114.09 16.128C114.09 16.752 113.898 17.264 113.514 17.664C113.13 18.064 112.626 18.264 112.002 18.264Z" fill="#EAB308"/>
</svg>
